<?xml version="1.0" standalone="no"?>
<!DOCTYPE svg PUBLIC "-//W3C//DTD SVG 20010904//EN"
 "http://www.w3.org/TR/2001/REC-SVG-20010904/DTD/svg10.dtd">
<svg version="1.0" xmlns="http://www.w3.org/2000/svg"
 width="1024.000000pt" height="1024.000000pt" viewBox="0 0 1024.000000 1024.000000"
 preserveAspectRatio="xMidYMid meet">
<metadata>
Created by potrace 1.14, written by Peter Selinger 2001-2017
</metadata>
<g transform="translate(0.000000,1024.000000) scale(0.100000,-0.100000)"
fill="#000000" stroke="none">
<path d="M0 5120 l0 -5120 5120 0 5120 0 0 5120 0 5120 -5120 0 -5120 0 0
-5120z m5225 4075 c48 -21 112 -80 138 -129 21 -40 22 -51 22 -391 0 -340 -1
-351 -22 -391 -26 -49 -92 -111 -142 -131 -47 -20 -155 -20 -204 1 -50 22
-114 81 -140 130 -21 40 -22 51 -22 391 0 340 1 351 22 390 19 36 59 79 106
115 52 39 166 46 242 15z m-1614 -186 c35 -16 116 -90 356 -332 294 -295 312
-315 327 -366 20 -68 20 -104 1 -168 -32 -109 -137 -185 -255 -186 -117 -1
-130 8 -466 346 -194 195 -307 316 -319 342 -24 51 -31 151 -15 202 52 158
215 228 371 162z m3245 1 c90 -39 146 -124 152 -232 8 -122 -5 -140 -346 -480
-329 -329 -346 -342 -457 -341 -119 0 -228 78 -260 186 -19 64 -19 100 1 168
15 51 33 71 322 362 169 170 324 317 344 328 81 42 163 45 244 9z m-2768
-1407 l1032 -258 1036 259 c1148 287 1091 276 1196 219 28 -15 64 -45 79 -66
28 -39 717 -1325 880 -1642 228 -446 293 -893 193 -1341 -70 -318 -207 -586
-423 -833 -134 -152 -367 -324 -563 -416 -77 -36 -106 -54 -103 -65 2 -8 90
-364 196 -790 105 -426 193 -777 196 -780 2 -2 191 42 420 99 447 111 456 113
547 73 197 -88 206 -383 14 -480 -24 -13 -527 -143 -1128 -293 -1155 -288
-1117 -280 -1206 -243 -48 20 -111 80 -136 128 -29 56 -34 141 -14 203 20 61
75 127 126 153 21 11 221 65 445 121 339 85 406 105 403 118 -3 9 -92 366
-199 795 l-194 779 -102 -6 c-490 -24 -969 151 -1330 488 -100 93 -227 244
-288 343 -21 34 -41 62 -45 62 -5 0 -20 -20 -34 -44 -46 -78 -146 -206 -229
-293 -364 -379 -877 -582 -1402 -556 l-100 5 -194 -778 c-107 -429 -196 -786
-199 -795 -3 -13 64 -33 403 -118 224 -56 424 -110 444 -121 116 -59 169 -205
122 -332 -24 -61 -88 -129 -144 -153 -88 -36 -51 -44 -1207 244 -601 150
-1104 280 -1128 293 -192 97 -183 392 14 480 91 40 100 38 547 -73 229 -57
418 -101 420 -99 3 3 91 354 196 780 106 426 194 782 196 790 4 11 -25 29
-102 65 -434 202 -778 590 -932 1051 -136 405 -134 806 5 1224 60 181 76 213
573 1145 365 686 438 816 474 848 46 41 109 65 172 67 22 0 505 -115 1073
-257z"/>
<path d="M2857 6709 c-164 -309 -295 -565 -290 -569 4 -4 429 -116 943 -250
514 -133 1026 -266 1138 -295 l202 -53 0 657 0 656 -832 208 c-458 114 -840
207 -848 207 -9 0 -125 -207 -313 -561z"/>
<path d="M6218 7062 l-828 -207 0 -632 c0 -348 1 -633 3 -633 11 1 2259 589
2262 592 3 3 -124 248 -282 546 -234 440 -292 541 -308 541 -11 0 -392 -93
-847 -207z"/>
</g>
</svg>
